<?xml version="1.0" encoding="UTF-8"?>
<svg width="700pt" height="700pt" version="1.1" viewBox="0 0 700 700" xmlns="http://www.w3.org/2000/svg">
 <g>
  <path d="m566.77 217.44-173.23-173.23c-3.2891-3.2891-9.1016-3.2891-12.371 0l-148.31 148.3h-84.105c-14.473 0-26.25 11.777-26.25 26.25v262.5c0 14.473 11.777 26.25 26.25 26.25h367.5c14.473 0 26.25-11.777 26.25-26.25v-45.359c10.168-3.6211 17.5-13.246 17.5-24.641v-70c0-11.391-7.332-21.016-17.5-24.641v-45.359c0-4.8984-1.4336-9.4492-3.7969-13.387l28.07-28.07c3.4102-3.3945 3.4102-8.9414 0-12.355zm-50.523 272.56h-367.5c-4.8125 0-8.75-3.9375-8.75-8.75v-262.5c0-4.8281 3.9375-8.75 8.75-8.75h66.605l-34.984 35h-22.871v17.5h358.75c4.8125 0 8.75 3.9219 8.75 8.75v43.75h-96.25c-14.473 0-26.25 11.777-26.25 26.25v70c0 14.473 11.777 26.25 26.25 26.25h96.25v43.75c0 4.8125-3.9375 8.75-8.75 8.75zm-37.977-245.95-0.96094 0.94531h-86.273c-3.3438-4.9336-7.0352-9.6406-11.254-13.844-17.832-17.816-41.512-27.633-66.711-27.633-6.457 0-12.793 0.68359-18.988 1.9414l72.781-72.781c12.129 7.5938 28.754 7.5938 40.879 0l70.488 70.488c-7.7109 12.48-7.7109 28.422 0.039063 40.883zm-219.5-0.50781c14.508-14.523 33.809-22.504 54.32-22.504s39.812 7.9961 54.32 22.523c0.4375 0.4375 0.71875 1.0156 1.1367 1.4531h-111.07c0.47266-0.49219 0.83984-1.0156 1.2969-1.4727zm283.73 167.7c0 4.8125-3.9375 8.75-8.75 8.75h-105c-4.8125 0-8.75-3.9375-8.75-8.75v-70c0-4.8125 3.9375-8.75 8.75-8.75h105c4.8125 0 8.75 3.9375 8.75 8.75zm-17.324-164.59c-2.8008-1.0156-5.7773-1.6641-8.9258-1.6641h-17.605c0-0.085938 0.050781-0.15625 0.050781-0.24609 0-2.3086-0.92578-4.5508-2.5547-6.1953-8.2422-8.2422-8.2422-21.664 0-29.906 3.4141-3.4141 3.4141-8.9609 0-12.371l-81.461-81.461c-3.2891-3.2891-9.1016-3.2891-12.371 0-7.9961 7.9961-21.91 7.9961-29.906 0-1.6445-1.6445-3.8672-2.5547-6.1953-2.5547s-4.5508 0.92578-6.1953 2.5547l-130.15 130.18h-24.762l182.24-182.25 160.86 160.86z"/>
  <path d="m478.91 379.61c0 12.641-10.25 22.891-22.891 22.891s-22.891-10.25-22.891-22.891 10.25-22.891 22.891-22.891 22.891 10.25 22.891 22.891"/>
 </g>
</svg>
